# xmcd
#
# Track frame offsets: 
#        150
#        14467
#        26415
#        38567
#        52440
#        66387
#        80057
#        93940
#        105967
#        119115
#        141362
#        154575
#        165220
#        179705
#        191597
#        206302
#        217122
#        232962
#        247147
#        261797
#
# Disc length: 3645 seconds
#
# Revision: 5
# Processed by: cddbd v1.5.2PL0 Copyright (c) Steve Scherf et al.
# Submitted via: ExactAudioCopy v1.3
#
DISCID=200e3b14
DTITLE=Dolly Parton - The Essential Dolly Parton Volume Two
DYEAR=1997
DGENRE=Country
TTITLE0=Mule Skinner Blues (Blue Yodel No. 8)
TTITLE1=Touch Your Woman
TTITLE2=The Bargain Store
TTITLE3=Coat Of Many Colors
TTITLE4=My Tennessee Mountain Home
TTITLE5=Joshua
TTITLE6=Just Because I'm A Woman
TTITLE7=Jolene
TTITLE8=I Will Always Love You (Original Version)
TTITLE9=Light Of A Clear Blue Morning
TTITLE10=Here You Come Again
TTITLE11=Love Is Like A Butterfly
TTITLE12=We Used To
TTITLE13=Me And Little Andy
TTITLE14=It's All Wrong, But It's All Right
TTITLE15=All I Can Do
TTITLE16=Heartbreaker
TTITLE17=I Really Got The Feeling
TTITLE18=The Seeker
TTITLE19=Wings Of A Dove
EXTD=YEAR: 1997
EXTT0=
EXTT1=
EXTT2=
EXTT3=
EXTT4=
EXTT5=
EXTT6=
EXTT7=
EXTT8=
EXTT9=
EXTT10=
EXTT11=
EXTT12=
EXTT13=
EXTT14=
EXTT15=
EXTT16=
EXTT17=
EXTT18=
EXTT19=
PLAYORDER=
